<?xml version="1.0" encoding="UTF-8"?>
<svg version="1.1" xmlns="http://www.w3.org/2000/svg" width="603" height="884">
<path d="M0 0 C0.93086929 -0.00708481 1.86173859 -0.01416962 2.82081604 -0.02146912 C3.84010696 -0.0189917 4.85939789 -0.01651428 5.90957642 -0.01396179 C7.52215584 -0.02162819 7.52215584 -0.02162819 9.16731262 -0.02944946 C12.73070807 -0.04338019 16.29391084 -0.04238593 19.85733032 -0.04008484 C22.32971265 -0.04397009 24.80209431 -0.04830441 27.2744751 -0.05307007 C32.46129518 -0.06053996 37.64804721 -0.06023559 42.83486938 -0.05497742 C49.48533885 -0.04918441 56.13542528 -0.06610605 62.78586388 -0.08932209 C67.89363233 -0.10404718 73.0013335 -0.10493274 78.10911942 -0.10181236 C80.56114885 -0.10232628 83.01318198 -0.10757708 85.46519089 -0.11762428 C88.89345189 -0.12994612 92.32116803 -0.12322187 95.74942017 -0.11161804 C96.76466263 -0.11926178 97.77990509 -0.12690552 98.82591248 -0.13478088 C107.52261212 -0.0696439 107.52261212 -0.0696439 111.45889282 3.26069641 C112.92362593 6.19016263 112.59827305 9.13490584 112.5901947 12.3457489 C112.59336827 13.45276325 112.59336827 13.45276325 112.59660596 14.58214152 C112.60262229 17.06794405 112.60160465 19.55369605 112.60073853 22.039505 C112.60376892 23.81653937 112.60729004 25.59357297 112.61126709 27.37060547 C112.61916534 31.20385704 112.62430447 35.03709925 112.62755775 38.87035751 C112.63345789 44.92893588 112.6499884 50.98745519 112.66889954 57.04600525 C112.67523714 59.118391 112.68156277 61.19077679 112.6878767 63.26316261 C112.69104251 64.30111198 112.69420832 65.33906134 112.69747007 66.40846372 C112.73958533 80.51805165 112.77253055 94.62761231 112.78482056 108.73725891 C112.79319042 118.24848494 112.81564126 127.75956514 112.85417622 137.27071822 C112.87397348 142.30668595 112.88632934 147.34243552 112.88134193 152.37844467 C112.87670877 157.11452595 112.89042766 161.85019337 112.91835403 166.58619118 C112.92528835 168.32606078 112.92536841 170.06597298 112.91815376 171.80584145 C112.90930835 174.17828307 112.92488726 176.5493472 112.94664001 178.92167664 C112.93819748 179.61292267 112.92975494 180.30416871 112.92105657 181.01636159 C112.97972784 184.46823126 113.25783798 186.01742503 115.49090862 188.71938515 C116.14034341 189.22801786 116.78977819 189.73665058 117.45889282 190.26069641 C124.12916605 188.39062466 130.47960404 186.15152719 136.83779907 183.40913391 C137.71045914 183.03809036 138.5831192 182.66704681 139.48222351 182.28475952 C141.35498128 181.48795831 143.22675839 180.68884885 145.09762573 179.88761902 C150.13916901 177.72888961 155.18825734 175.58791544 160.23623657 173.44429016 C161.26498901 173.00688004 162.29374146 172.56946991 163.35366821 172.11880493 C173.23931469 167.91920735 183.15715564 163.79951039 193.08389282 159.69819641 C196.46433113 158.30031442 199.84450755 156.90180054 203.22451782 155.50288391 C204.06267532 155.15600021 204.90083282 154.80911652 205.76438904 154.45172119 C215.46481645 150.43421169 225.14991744 146.38016721 234.83389282 142.32319641 C235.72150299 141.95141266 236.60911316 141.57962891 237.52362061 141.19657898 C245.67916019 137.78035304 253.83373704 134.36183262 261.98770142 130.94184875 C267.49853722 128.63052251 273.00978812 126.32018852 278.52139282 124.01069641 C279.4152771 123.63608276 280.30916138 123.26146912 281.23013306 122.87550354 C292.69682869 118.07150073 304.1777558 113.30411587 315.67889404 108.58317566 C320.41793551 106.63702451 325.15437656 104.68455801 329.89053345 102.73139954 C332.15406325 101.79848331 334.41830289 100.86728598 336.6835022 99.93843079 C363.80021112 88.78946259 387.24996791 73.51608655 408.45889282 53.26069641 C409.84721313 51.95165344 409.84721313 51.95165344 411.26358032 50.61616516 C420.62979 41.55508696 428.42393427 31.47178602 435.70889282 20.69819641 C436.08473511 20.1461554 436.46057739 19.59411438 436.84780884 19.02534485 C439.51867433 14.98113941 441.82654523 10.77920831 444.11416626 6.5070343 C444.43682465 5.90530647 444.75948303 5.30357864 445.09191895 4.68361664 C445.8819717 3.20987844 446.67057883 1.73536542 447.45889282 0.26069641 C463.01854206 0.16723361 478.57814036 0.09670776 494.13800335 0.05344772 C501.36281915 0.03282694 508.58746049 0.00471588 515.81216431 -0.0410614 C522.1096093 -0.08094433 528.40692794 -0.10673993 534.70449573 -0.11565757 C538.03875459 -0.12086999 541.3725679 -0.13521069 544.7067318 -0.16222382 C548.42992096 -0.1911934 552.15235742 -0.19526211 555.87564087 -0.19340515 C556.97975311 -0.20778625 558.08386536 -0.22216736 559.22143555 -0.23698425 C566.6676839 -0.19670735 566.6676839 -0.19670735 570.62083435 2.08863831 C573.25212769 5.19807259 573.45052893 7.20002702 573.45889282 11.26069641 C572.78903034 14.28091516 571.72999891 17.0790288 570.58389282 19.94819641 C570.26726685 20.76981262 569.95064087 21.59142883 569.62442017 22.4379425 C555.4486138 58.62842639 535.61184226 91.44904464 509.45889282 120.26069641 C508.90234009 120.87896301 508.34578735 121.49722961 507.77236938 122.13423157 C495.9496288 135.22827084 483.33501544 147.34909935 469.45889282 158.26069641 C468.14490347 159.31645296 466.8311173 160.37246242 465.51748657 161.42866516 C447.91303315 175.47182164 429.21978011 187.48889227 409.45889282 198.26069641 C408.12616333 198.99086975 408.12616333 198.99086975 406.76651001 199.73579407 C361.03545871 224.63599871 311.58133888 240.74171498 262.16201782 256.56538391 C218.48123751 270.5633847 175.88711261 286.50513246 134.45889282 306.26069641 C133.52851196 306.70058899 132.5981311 307.14048157 131.63955688 307.59370422 C93.68458747 325.62942871 56.26731612 349.18482206 29.77920532 382.36616516 C25.45474088 387.76082535 20.94408427 392.99961448 16.45889282 398.26069641 C15.78471313 399.06120422 15.11053345 399.86171204 14.41592407 400.68647766 C6.16432045 410.3588872 6.16432045 410.3588872 0.45889282 412.26069641 C-5.9198054 412.71631771 -5.9198054 412.71631771 -8.41610718 410.88569641 C-10.80977622 407.42817446 -10.66822468 404.9713332 -10.67253494 400.78161907 C-10.67458758 400.10545989 -10.67664021 399.42930071 -10.67875504 398.73265186 C-10.68445394 396.44451203 -10.68296426 394.15643185 -10.68154907 391.86828613 C-10.68413106 390.22020263 -10.68714374 388.57211975 -10.69055247 386.92403775 C-10.69864534 382.37757687 -10.70041331 377.83113175 -10.70114994 373.28466451 C-10.70299653 368.38816678 -10.71054185 363.49167731 -10.71728516 358.59518433 C-10.73088516 347.88043384 -10.73689577 337.16568709 -10.74129581 326.4509294 C-10.74405539 319.76489606 -10.74829221 313.07886417 -10.75279999 306.3928318 C-10.76499476 287.89352986 -10.77529371 269.39422909 -10.77867508 250.89492321 C-10.77889465 249.71020676 -10.77911421 248.52549031 -10.77934043 247.30487337 C-10.77955871 246.11726767 -10.77977699 244.92966197 -10.78000188 243.70606822 C-10.78044535 241.29939155 -10.78089191 238.89271488 -10.78134155 236.48603821 C-10.78156298 235.29223485 -10.78178441 234.0984315 -10.78201255 232.86845229 C-10.7859619 213.51762619 -10.80341918 194.16683773 -10.82670107 174.81602617 C-10.85039268 154.96500937 -10.86287593 135.11401146 -10.864043 115.26298028 C-10.86496099 104.1108278 -10.87074436 92.95872433 -10.88886261 81.80658531 C-10.90423406 72.31145898 -10.90940158 62.81639682 -10.90112451 53.32126042 C-10.89720751 48.47411594 -10.89819857 43.62710079 -10.91218185 38.77997208 C-10.92485808 34.34548419 -10.92377888 29.91122364 -10.91159114 25.47673634 C-10.9096232 23.86971699 -10.91276283 22.26268188 -10.92143551 20.65568473 C-10.93245739 18.47594366 -10.92509095 16.29701498 -10.91304398 14.11729717 C-10.91364106 12.90517486 -10.91423815 11.69305255 -10.91485333 10.44419926 C-10.50096902 6.91880678 -9.67241339 5.07356885 -7.54110718 2.26069641 C-4.3750939 0.15002089 -3.61814222 0.00917786 0 0 Z " fill="#F48600" transform="translate(10.541107177734375,148.7393035888672)"/>
<path d="M0 0 C1.04704102 0.15597656 2.09408203 0.31195313 3.17285156 0.47265625 C51.68927656 7.93459573 98.79843018 26.06446931 138 56 C138.8647998 56.65282959 138.8647998 56.65282959 139.74707031 57.31884766 C147.28394905 63.02592831 154.41788171 69.03766281 161.31640625 75.5 C163.60958458 77.63629423 165.93663261 79.70702766 168.3125 81.75 C174.75903867 87.3574231 180.45153329 93.51590949 186 100 C186.80179688 100.91265625 187.60359375 101.8253125 188.4296875 102.765625 C200.90347423 117.07636812 211.44497972 132.62150356 221 149 C221.4237793 149.71591309 221.84755859 150.43182617 222.28417969 151.16943359 C247.89116255 194.59895526 261.87298466 246.46873065 262.125 296.8125 C262.12975342 297.60881836 262.13450684 298.40513672 262.1394043 299.22558594 C262.12270889 304.87729111 262.12270889 304.87729111 261 306 C259.46343737 306.10234829 257.92219122 306.135193 256.38223267 306.14044189 C255.38390915 306.14615204 254.38558563 306.15186218 253.35700989 306.15774536 C252.25258041 306.15886322 251.14815094 306.15998108 250.01025391 306.16113281 C248.27625084 306.16858017 248.27625084 306.16858017 246.50721741 306.17617798 C242.66365983 306.19084398 238.82014352 306.19760884 234.9765625 306.203125 C232.98870855 306.20742125 231.00085461 306.21171799 229.01300085 306.2160995 C223.47241901 306.22792105 217.93184723 306.23545154 212.39125407 306.2388947 C205.21846688 306.24337622 198.04587018 306.26092568 190.87314093 306.2898953 C185.33426223 306.31149181 179.79543719 306.3215979 174.25651681 306.32293582 C170.9459061 306.32398539 167.6355155 306.33136138 164.32493973 306.34775543 C160.63265651 306.36473486 156.94084114 306.36295536 153.24853516 306.35644531 C152.14815414 306.3656601 151.04777313 306.37487488 149.91404724 306.3843689 C148.91008408 306.37879974 147.90612091 306.37323059 146.87173462 306.36749268 C145.9982519 306.36895924 145.12476917 306.3704258 144.22481728 306.3719368 C141.5159968 305.91908612 140.63590664 305.16997754 139 303 C138.55517578 300.66943359 138.55517578 300.66943359 138.4453125 297.8984375 C138.39093018 296.86348145 138.33654785 295.82852539 138.28051758 294.76220703 C138.20353638 293.08553955 138.20353638 293.08553955 138.125 291.375 C135.48555694 249.27866621 119.97185891 211.53108403 92 180 C90.9351768 178.71024786 89.87222226 177.41894658 88.8125 176.125 C85.55056236 172.34558784 81.81208889 169.20812932 78 166 C77.17113281 165.26007813 76.34226562 164.52015625 75.48828125 163.7578125 C51.28505816 142.62640713 21.33383165 129.9428794 -10 124 C-11.13695312 123.773125 -12.27390625 123.54625 -13.4453125 123.3125 C-57.75668892 115.91013549 -104.57953792 128.10736734 -141.0625 153.75 C-180.82933202 182.60609707 -207.66831561 225.42774075 -215.42700195 274.10473633 C-216.66092746 282.57185657 -217.39765969 291.03038611 -217.71020508 299.58105469 C-217.90816368 304.90816368 -217.90816368 304.90816368 -219 306 C-220.53656263 306.10234829 -222.07780878 306.135193 -223.61776733 306.14044189 C-224.61609085 306.14615204 -225.61441437 306.15186218 -226.64299011 306.15774536 C-227.74741959 306.15886322 -228.85184906 306.15998108 -229.98974609 306.16113281 C-231.72374916 306.16858017 -231.72374916 306.16858017 -233.49278259 306.17617798 C-237.33634017 306.19084398 -241.17985648 306.19760884 -245.0234375 306.203125 C-247.01129145 306.20742125 -248.99914539 306.21171799 -250.98699915 306.2160995 C-256.52758099 306.22792105 -262.06815277 306.23545154 -267.60874593 306.2388947 C-274.78153312 306.24337622 -281.95412982 306.26092568 -289.12685907 306.2898953 C-294.66573777 306.31149181 -300.20456281 306.3215979 -305.74348319 306.32293582 C-309.0540939 306.32398539 -312.3644845 306.33136138 -315.67506027 306.34775543 C-319.36734349 306.36473486 -323.05915886 306.36295536 -326.75146484 306.35644531 C-327.85184586 306.3656601 -328.95222687 306.37487488 -330.08595276 306.3843689 C-331.08991592 306.37879974 -332.09387909 306.37323059 -333.12826538 306.36749268 C-334.0017481 306.36895924 -334.87523083 306.3704258 -335.77518272 306.3719368 C-338.47935712 305.91986283 -339.3619744 305.1610212 -341 303 C-341.38818359 300.88476562 -341.38818359 300.88476562 -341.3984375 298.40625 C-341.40472168 297.47272705 -341.41100586 296.5392041 -341.41748047 295.57739258 C-341.40346191 294.56185303 -341.38944336 293.54631348 -341.375 292.5 C-341.36484863 291.43483154 -341.35469727 290.36966309 -341.34423828 289.2722168 C-340.51177858 244.94212427 -328.86301508 200.24518487 -308.09960938 161.07519531 C-307.32843273 159.61982199 -306.56474073 158.16046965 -305.80664062 156.69824219 C-287.61066133 121.67450839 -260.50902615 87.99569651 -229 64 C-228.00097656 63.20722656 -227.00195312 62.41445313 -225.97265625 61.59765625 C-183.69648006 28.17570602 -133.17351429 7.76953209 -80 0 C-79.1248877 -0.13132324 -78.24977539 -0.26264648 -77.34814453 -0.39794922 C-52.44264237 -3.95445293 -24.86237527 -3.75349894 0 0 Z " fill="#F48600" transform="translate(341,494)"/>
<path d="M0 0 C15.98472356 13.9495333 26.78996305 31.27045451 29.9375 52.4609375 C31.5845489 78.64560735 27.09295777 100.98506855 9.9375 121.4609375 C-3.89778549 137.05388177 -24.1550406 148.22335834 -45.2109375 149.6015625 C-71.09402595 150.65543418 -92.20325323 144.25098802 -111.86328125 127.00390625 C-128.47674605 111.30958196 -136.57601924 91.43421282 -138.34375 68.87109375 C-138.97564068 45.8860701 -131.21264669 24.65983094 -115.4296875 7.8671875 C-114.64851563 7.073125 -113.86734375 6.2790625 -113.0625 5.4609375 C-112.30195313 4.6875 -111.54140625 3.9140625 -110.7578125 3.1171875 C-80.91795043 -25.4508116 -31.52090247 -26.13340128 0 0 Z " fill="#F48600" transform="translate(355.0625,734.5390625)"/>
<path d="M0 0 C15.98472356 13.9495333 26.78996305 31.27045451 29.9375 52.4609375 C31.5845489 78.64560735 27.09295777 100.98506855 9.9375 121.4609375 C-3.89778549 137.05388177 -24.1550406 148.22335834 -45.2109375 149.6015625 C-71.09402595 150.65543418 -92.20325323 144.25098802 -111.86328125 127.00390625 C-128.47674605 111.30958196 -136.57601924 91.43421282 -138.34375 68.87109375 C-138.97564068 45.8860701 -131.21264669 24.65983094 -115.4296875 7.8671875 C-114.64851563 7.073125 -113.86734375 6.2790625 -113.0625 5.4609375 C-112.30195313 4.6875 -111.54140625 3.9140625 -110.7578125 3.1171875 C-80.91795043 -25.4508116 -31.52090247 -26.13340128 0 0 Z " fill="#F48600" transform="translate(355.0625,18.5390625)"/>
</svg>
